<svg width="19" height="15" viewBox="0 0 19 15" fill="none" xmlns="http://www.w3.org/2000/svg">
<path d="M3.77358 13.5351C3.77358 13.5351 5.77216 12.3411 9.35439 12.3411C12.9366 12.3411 14.9352 13.5351 14.9352 13.5351L17.6965 5.07288C17.7166 5.01539 17.7191 4.95319 17.7036 4.89428C17.6881 4.83537 17.6553 4.78245 17.6095 4.74232C17.5637 4.70219 17.5069 4.67669 17.4465 4.6691C17.386 4.66151 17.3247 4.67218 17.2704 4.69973L13.2829 6.68787C13.2139 6.72199 13.1345 6.72896 13.0606 6.7074C12.9867 6.68584 12.9235 6.63733 12.8836 6.57145L9.61708 1.14662C9.58976 1.10184 9.55139 1.06483 9.50565 1.03916C9.45991 1.01348 9.40833 1 9.35588 1C9.30342 1 9.25185 1.01348 9.20611 1.03916C9.16037 1.06483 9.12199 1.10184 9.09468 1.14662L5.82515 6.57369C5.78538 6.63989 5.72209 6.68865 5.64794 6.71023C5.57379 6.73181 5.49422 6.72462 5.42514 6.69011L1.44364 4.70347C1.38928 4.67608 1.32797 4.66553 1.26758 4.67317C1.20718 4.68081 1.15044 4.70629 1.10461 4.74636C1.05877 4.78642 1.02593 4.83925 1.01028 4.89808C0.994633 4.95691 0.99689 5.01907 1.01676 5.07661L3.77358 13.5351Z" fill="#EAD83A" stroke="#EAD83A" stroke-width="1.80653" stroke-linecap="round" stroke-linejoin="round"/>
</svg>
