<svg width="64" height="61" viewBox="0 0 64 61" fill="none" xmlns="http://www.w3.org/2000/svg">
<path d="M61.0069 25.4147H24.8148L59.1005 16.3627C59.4251 16.2772 59.7295 16.1283 59.9961 15.9245C60.2628 15.7208 60.4865 15.4662 60.6543 15.1755C60.8221 14.8849 60.9306 14.5639 60.9737 14.231C61.0167 13.8982 60.9935 13.5601 60.9052 13.2363L58.3126 3.70454C57.9557 2.42216 57.1081 1.33197 55.9532 0.670086C54.7983 0.00820232 53.4292 -0.172091 52.1423 0.168253L3.75591 12.9408C3.11165 13.1081 2.50723 13.4022 1.97803 13.8059C1.44883 14.2096 1.0055 14.7148 0.673969 15.292C0.340591 15.8621 0.125202 16.4934 0.0406017 17.1483C-0.0439988 17.8033 0.00391405 18.4686 0.181494 19.1047L2.54537 27.8167C2.54537 27.8612 2.54537 27.9089 2.54537 27.9565V55.9164C2.54537 57.2646 3.08097 58.5577 4.03433 59.511C4.98769 60.4644 6.28072 61 7.62898 61H58.4651C59.8133 61 61.1064 60.4644 62.0597 59.511C63.0131 58.5577 63.5487 57.2646 63.5487 55.9164V27.9565C63.5487 27.2824 63.2809 26.6359 62.8042 26.1592C62.3275 25.6825 61.681 25.4147 61.0069 25.4147ZM53.4323 5.08029L55.3387 12.0925L48.1517 13.9988L39.2173 8.83899L53.4323 5.08029ZM32.2432 10.6723L41.1776 15.8321L29.4408 18.93L20.5064 13.7764L32.2432 10.6723ZM7.01577 24.8492L5.10942 17.8338L13.5291 15.6097L22.4636 20.7759L7.01577 24.8492ZM58.4651 55.9164H7.62898V30.4983H58.4651V55.9164Z" fill="#2BEFFC"/>
</svg>
