<svg width="26" height="26" viewBox="0 0 26 26" fill="none" xmlns="http://www.w3.org/2000/svg">
<path fill-rule="evenodd" clip-rule="evenodd" d="M12.5953 0.715454C5.6364 0.715454 0 6.35185 0 13.3108C0 18.8842 3.6054 23.5917 8.61203 25.2605C9.2418 25.3708 9.47796 24.9929 9.47796 24.6623C9.47796 24.3631 9.46222 23.3712 9.46222 22.3164C6.29765 22.8989 5.47895 21.5449 5.22705 20.8364C5.08535 20.4743 4.47133 19.3565 3.93603 19.0574C3.4952 18.8212 2.86543 18.2387 3.92029 18.2229C4.91217 18.2072 5.62065 19.1361 5.85681 19.5139C6.99039 21.419 8.80097 20.8837 9.5252 20.5531C9.6354 19.7344 9.96603 19.1833 10.3281 18.8684C7.52569 18.5535 4.59728 17.4672 4.59728 12.6495C4.59728 11.2798 5.08535 10.1462 5.8883 9.26451C5.76235 8.94963 5.32151 7.65861 6.01426 5.92676C6.01426 5.92676 7.06911 5.59613 9.47796 7.21778C10.4856 6.93438 11.5562 6.79269 12.6268 6.79269C13.6974 6.79269 14.768 6.93438 15.7756 7.21778C18.1845 5.58039 19.2393 5.92676 19.2393 5.92676C19.9321 7.65861 19.4912 8.94963 19.3653 9.26451C20.1682 10.1462 20.6563 11.264 20.6563 12.6495C20.6563 17.4829 17.7121 18.5535 14.9097 18.8684C15.3663 19.262 15.7599 20.0177 15.7599 21.1986C15.7599 22.8832 15.7441 24.2372 15.7441 24.6623C15.7441 24.9929 15.9803 25.3865 16.6101 25.2605C21.5852 23.5917 25.1906 18.8684 25.1906 13.3108C25.1906 6.35185 19.5542 0.715454 12.5953 0.715454Z" fill="#797979"/>
</svg>
