<svg width="50" height="63" viewBox="0 0 50 63" fill="none" xmlns="http://www.w3.org/2000/svg">
<path d="M14.0359 60H35.9565" stroke="#43EF4A" stroke-width="4.38412" stroke-linecap="round" stroke-linejoin="round"/>
<path d="M11.4876 42.1895C8.88168 40.1538 6.77098 37.5541 5.31402 34.5856C3.85707 31.6171 3.09174 28.3571 3.07553 25.0503C3.00977 13.1694 12.5891 3.28044 24.4673 3.00643C29.0707 2.89493 33.5922 4.2359 37.3905 6.83908C41.1888 9.44226 44.0708 13.1755 45.6277 17.509C47.1846 21.8425 47.3373 26.5562 46.0642 30.9814C44.791 35.4066 42.1567 39.3185 38.5349 42.1621C37.736 42.7815 37.0887 43.5747 36.6419 44.4815C36.1952 45.3882 35.9608 46.3848 35.9564 47.3957V49.0397C35.9564 49.6211 35.7255 50.1786 35.3144 50.5897C34.9033 51.0008 34.3458 51.2318 33.7644 51.2318H16.2279C15.6465 51.2318 15.089 51.0008 14.6779 50.5897C14.2668 50.1786 14.0358 49.6211 14.0358 49.0397V47.3957C14.0348 46.3913 13.8047 45.4003 13.3632 44.4982C12.9216 43.5961 12.2801 42.8065 11.4876 42.1895Z" stroke="#43EF4A" stroke-width="4.38412" stroke-linecap="round" stroke-linejoin="round"/>
<path d="M27.1885 11.7747C32.6686 12.6981 37.2199 17.2548 38.1488 22.735" stroke="#43EF4A" stroke-width="4.38412" stroke-linecap="round" stroke-linejoin="round"/>
</svg>
