<svg width="64" height="64" viewBox="0 0 64 64" fill="none" xmlns="http://www.w3.org/2000/svg">
<circle cx="32" cy="32" r="32" fill="#EFEFEF"/>
<path d="M48.5824 24.796C48.4244 24.6473 48.2328 24.5391 48.0239 24.4806C47.815 24.422 47.5951 24.4147 47.3828 24.4595C47.1215 23.5199 46.677 22.6413 46.0751 21.874C45.4731 21.1068 44.7255 20.466 43.8752 19.9885C43.0249 19.5111 42.0886 19.2063 41.1201 19.0918C40.1517 18.9773 39.1701 19.0552 38.2319 19.3212C37.6413 18.0325 36.6932 16.9405 35.5002 16.1749C34.3072 15.4093 32.9195 15.0023 31.502 15.0023C30.0845 15.0023 28.6967 15.4093 27.5038 16.1749C26.3108 16.9405 25.3627 18.0325 24.7721 19.3212C23.8341 19.0549 22.8527 18.9765 21.8843 19.0906C20.9159 19.2047 19.9796 19.5089 19.1291 19.9859C18.2787 20.4629 17.5308 21.1032 16.9285 21.87C16.3262 22.6369 15.8814 23.5151 15.6195 24.4544C15.3984 24.409 15.1694 24.42 14.9536 24.4863C14.7379 24.5526 14.5422 24.672 14.3847 24.8337C14.2273 24.9954 14.1129 25.1941 14.0523 25.4115C13.9917 25.629 13.9868 25.8582 14.038 26.078L19.1796 47.9232C19.3188 48.5138 19.6534 49.04 20.1292 49.4166C20.605 49.7932 21.1941 49.9979 21.8009 49.9977H41.2031C41.8099 49.9979 42.399 49.7932 42.8748 49.4166C43.3506 49.04 43.6852 48.5138 43.8244 47.9232L48.9643 26.078C49.018 25.8495 49.0109 25.6111 48.9439 25.3862C48.8769 25.1613 48.7523 24.9578 48.5824 24.796ZM22.7532 21.7322C23.5224 21.73 24.2802 21.9185 24.9589 22.2807C25.1421 22.3778 25.3453 22.4314 25.5526 22.4371C25.7599 22.4428 25.9657 22.4005 26.154 22.3135C26.3423 22.2265 26.5079 22.0972 26.638 21.9357C26.7681 21.7741 26.859 21.5847 26.9038 21.3822C27.1368 20.3364 27.7193 19.4013 28.5552 18.7311C29.3912 18.0609 30.4306 17.6957 31.502 17.6957C32.5734 17.6957 33.6128 18.0609 34.4488 18.7311C35.2847 19.4013 35.8672 20.3364 36.1002 21.3822C36.145 21.5847 36.2359 21.7741 36.366 21.9357C36.4961 22.0972 36.6617 22.2265 36.85 22.3135C37.0382 22.4005 37.2441 22.4428 37.4514 22.4371C37.6587 22.4314 37.8619 22.3778 38.0451 22.2807C38.6681 21.9502 39.3574 21.7638 40.0621 21.7353C40.7668 21.7067 41.4689 21.8368 42.1166 22.1158C42.7643 22.3949 43.3411 22.8158 43.8044 23.3475C44.2677 23.8792 44.6057 24.5082 44.7935 25.188L38.3059 27.0387L32.5031 24.7169C31.8615 24.4604 31.1459 24.4604 30.5043 24.7169L24.6998 27.042L18.2105 25.188C18.4852 24.1942 19.0783 23.318 19.8989 22.6938C20.7194 22.0695 21.7221 21.7317 22.7532 21.7322ZM21.8009 47.3057L17.1859 27.6948L23.554 29.5136L25.9263 47.3057H21.8009ZM34.3622 47.3057H28.6418L26.2443 29.3235L31.502 27.2204L36.7597 29.3235L34.3622 47.3057ZM41.2031 47.3057H37.0777L39.45 29.5136L45.8181 27.6948L41.2031 47.3057Z" fill="#797979"/>
</svg>
