<svg width="88" height="118" viewBox="0 0 88 118" fill="none" xmlns="http://www.w3.org/2000/svg">
<path d="M20.8253 95.8416H35.1111C37.3908 95.8416 38.5307 98.6007 36.9221 100.209L32.4691 104.662C35.8035 107.784 40.118 109.488 44.7095 109.488C52.955 109.478 60.0819 103.831 62.0527 95.9801C62.1912 95.4048 62.7026 95 63.2991 95H69.4033C70.2023 95 70.8095 95.7244 70.6604 96.5127C68.3487 108.742 57.5997 118 44.6882 118C37.6145 118 31.1801 115.22 26.4395 110.681L22.6363 114.484C21.0277 116.093 18.2686 114.953 18.2686 112.684V98.3983C18.2686 96.9815 19.4084 95.8416 20.8253 95.8416Z" fill="#2E1753"/>
<path d="M68.1259 22.1584H53.8401C51.5603 22.1584 50.4205 19.3993 52.0291 17.7906L56.4821 13.3377C53.1476 10.2163 48.8331 8.51181 44.2417 8.51181C35.9962 8.52246 28.8693 14.1686 26.8985 22.0199C26.76 22.5952 26.2486 23 25.652 23H19.5478C18.7489 23 18.1416 22.2756 18.2908 21.4873C20.6025 9.25753 31.3514 3.81377e-07 44.263 3.81377e-07C51.3366 3.81377e-07 57.7711 2.78045 62.5117 7.31867L66.3149 3.51552C67.9235 1.9069 70.6826 3.04678 70.6826 5.31589V19.6017C70.6826 21.0185 69.5427 22.1584 68.1259 22.1584Z" fill="#2E1753"/>
<path d="M87.2002 77.9L87.2002 40.1C87.2002 35.6281 83.5721 32 79.1002 32L8.90019 32C4.42832 32 0.800194 35.6281 0.800193 40.1L0.800192 77.9C0.800192 82.3719 4.42832 86 8.90019 86L79.1002 86C83.5721 86 87.2002 82.3719 87.2002 77.9ZM6.20019 59C6.20019 56.0131 8.61332 53.6 11.6002 53.6C14.5871 53.6 17.0002 56.0131 17.0002 59C17.0002 61.9869 14.5871 64.4 11.6002 64.4C8.61332 64.4 6.20019 61.9869 6.20019 59Z" fill="#2E1753"/>
</svg>
