<svg width="56" height="56" viewBox="0 0 56 56" fill="none" xmlns="http://www.w3.org/2000/svg">
<path d="M48.9308 9.22662C49.0152 8.92727 49.0182 8.61084 48.9397 8.30991C48.8611 8.00899 48.7038 7.73443 48.4839 7.51452C48.2639 7.2946 47.9894 7.13726 47.6885 7.0587C47.3875 6.98014 47.0711 6.9832 46.7718 7.06756L4.77175 19.8032C4.42885 19.9 4.12367 20.0991 3.89698 20.374C3.67029 20.6488 3.5329 20.9863 3.50317 21.3414C3.47345 21.6964 3.5528 22.0521 3.73063 22.3608C3.90845 22.6696 4.17628 22.9167 4.49831 23.0691L23.2277 31.9372C23.5923 32.1102 23.886 32.4039 24.0589 32.7685L32.9292 51.4957C33.0817 51.8177 33.3288 52.0855 33.6375 52.2634C33.9463 52.4412 34.3019 52.5205 34.657 52.4908C35.012 52.4611 35.3495 52.3237 35.6244 52.097C35.8993 51.8703 36.0984 51.5651 36.1952 51.2222L48.9308 9.22662Z" stroke="#2BEFFC" stroke-width="3.5" stroke-linecap="round" stroke-linejoin="round"/>
<path d="M23.7192 32.2831L35.0024 21" stroke="#2BEFFC" stroke-width="3.5" stroke-linecap="round" stroke-linejoin="round"/>
</svg>
