<svg width="27" height="26" viewBox="0 0 27 26" fill="none" xmlns="http://www.w3.org/2000/svg">
<path d="M13.1907 25.0004C19.8182 25.0004 25.1908 19.6278 25.1908 13.0003C25.1908 6.37288 19.8182 1.00027 13.1907 1.00027C6.56328 1.00027 1.19067 6.37288 1.19067 13.0003C1.19067 19.6278 6.56328 25.0004 13.1907 25.0004Z" stroke="#797979" stroke-width="2.00001" stroke-linecap="round" stroke-linejoin="round"/>
<path d="M8.19067 13.0002C8.19067 17.6827 9.85693 21.8652 12.4757 24.6865C12.5667 24.7854 12.6772 24.8644 12.8003 24.9184C12.9233 24.9725 13.0563 25.0004 13.1907 25.0004C13.3251 25.0004 13.4581 24.9725 13.5811 24.9184C13.7042 24.8644 13.8147 24.7854 13.9057 24.6865C16.5245 21.8652 18.1907 17.6827 18.1907 13.0002C18.1907 8.31764 16.5245 4.13512 13.9057 1.31386C13.8147 1.21491 13.7042 1.13592 13.5811 1.08189C13.4581 1.02785 13.3251 0.999954 13.1907 0.999954C13.0563 0.999954 12.9233 1.02785 12.8003 1.08189C12.6772 1.13592 12.5667 1.21491 12.4757 1.31386C9.85693 4.13512 8.19067 8.31764 8.19067 13.0002Z" stroke="#797979" stroke-width="2.00001" stroke-linecap="round" stroke-linejoin="round"/>
<path d="M1.87305 9.00015H24.5081" stroke="#797979" stroke-width="2.00001" stroke-linecap="round" stroke-linejoin="round"/>
<path d="M1.87305 17.0002H24.5081" stroke="#797979" stroke-width="2.00001" stroke-linecap="round" stroke-linejoin="round"/>
</svg>
