<svg width="25" height="24" viewBox="0 0 25 24" fill="none" xmlns="http://www.w3.org/2000/svg">
<path fill-rule="evenodd" clip-rule="evenodd" d="M2.85734 24H21.524C22.9968 24 24.1907 22.8061 24.1907 21.3333V2.66667C24.1907 1.19391 22.9968 0 21.524 0H2.85734C1.38458 0 0.190674 1.19391 0.190674 2.66667V21.3333C0.190674 22.8061 1.38458 24 2.85734 24Z" fill="#797979"/>
<path fill-rule="evenodd" clip-rule="evenodd" d="M20.8573 20.6667H17.2958V14.6007C17.2958 12.9376 16.6639 12.0082 15.3475 12.0082C13.9155 12.0082 13.1673 12.9754 13.1673 14.6007V20.6667H9.73504V9.11111H13.1673V10.6676C13.1673 10.6676 14.1993 8.75807 16.6514 8.75807C19.1025 8.75807 20.8573 10.2548 20.8573 13.3504V20.6667ZM5.64038 7.598C4.47128 7.598 3.52393 6.64322 3.52393 5.46567C3.52393 4.28812 4.47128 3.33333 5.64038 3.33333C6.80947 3.33333 7.75626 4.28812 7.75626 5.46567C7.75626 6.64322 6.80947 7.598 5.64038 7.598ZM3.86811 20.6667H7.44706V9.11111H3.86811V20.6667Z" fill="#EFEFEF"/>
</svg>
