<svg width="58" height="62" viewBox="0 0 58 62" fill="none" xmlns="http://www.w3.org/2000/svg">
<path d="M7.33325 42.0001V11.6667" stroke="#2BEFFC" stroke-width="4.33333" stroke-linecap="round" stroke-linejoin="round"/>
<path d="M50.6667 11.6667V42.0001" stroke="#2BEFFC" stroke-width="4.33333" stroke-linecap="round" stroke-linejoin="round"/>
<path d="M52.8333 3H5.16667C3.97005 3 3 3.97005 3 5.16667V9.5C3 10.6966 3.97005 11.6667 5.16667 11.6667H52.8333C54.03 11.6667 55 10.6966 55 9.5V5.16667C55 3.97005 54.03 3 52.8333 3Z" stroke="#2BEFFC" stroke-width="4.33333" stroke-linecap="round" stroke-linejoin="round"/>
<path d="M29 42.0001V50.6668" stroke="#2BEFFC" stroke-width="4.33333" stroke-linecap="round" stroke-linejoin="round"/>
<path d="M29.0001 59.3334C31.3933 59.3334 33.3334 57.3933 33.3334 55.0001C33.3334 52.6068 31.3933 50.6667 29.0001 50.6667C26.6068 50.6667 24.6667 52.6068 24.6667 55.0001C24.6667 57.3933 26.6068 59.3334 29.0001 59.3334Z" stroke="#2BEFFC" stroke-width="4.33333" stroke-linecap="round" stroke-linejoin="round"/>
<path d="M3 42.0001H55" stroke="#2BEFFC" stroke-width="4.33333" stroke-linecap="round" stroke-linejoin="round"/>
</svg>
