<svg width="33" height="32" viewBox="0 0 33 32" fill="none" xmlns="http://www.w3.org/2000/svg">
<path d="M17.7919 2.47824L21.1465 10.4726C21.2277 10.6666 21.3603 10.8348 21.53 10.959C21.6998 11.0832 21.9002 11.1587 22.1097 11.1773L30.6961 11.9196C30.924 11.9379 31.1412 12.0234 31.3205 12.1652C31.4997 12.307 31.6328 12.4989 31.703 12.7164C31.7732 12.9339 31.7773 13.1673 31.7148 13.3872C31.6522 13.607 31.5259 13.8034 31.3517 13.9514L24.8375 19.6338C24.6792 19.7729 24.5615 19.9523 24.4969 20.1529C24.4323 20.3535 24.4233 20.5679 24.4707 20.7732L26.4231 29.2268C26.4747 29.4476 26.4602 29.6787 26.3814 29.8913C26.3026 30.1039 26.1629 30.2886 25.9799 30.4224C25.7968 30.5562 25.5784 30.6331 25.3519 30.6437C25.1254 30.6542 24.9008 30.5979 24.7061 30.4817L17.3269 26.0051C17.1476 25.896 16.9418 25.8384 16.732 25.8384C16.5221 25.8384 16.3163 25.896 16.137 26.0051L8.75779 30.4817C8.56309 30.5979 8.3385 30.6542 8.112 30.6437C7.8855 30.6331 7.66712 30.5562 7.48406 30.4224C7.301 30.2886 7.16136 30.1039 7.08253 29.8913C7.00371 29.6787 6.98919 29.4476 7.04079 29.2268L8.99317 20.7732C9.04063 20.5679 9.03159 20.3535 8.96701 20.1529C8.90243 19.9523 8.78472 19.7729 8.62638 19.6338L2.11217 13.9514C1.93801 13.8034 1.81168 13.607 1.74915 13.3872C1.68662 13.1673 1.69071 12.9339 1.7609 12.7164C1.83108 12.4989 1.96422 12.307 2.14345 12.1652C2.32268 12.0234 2.53995 11.9379 2.76778 11.9196L11.3542 11.1773C11.5637 11.1587 11.7641 11.0832 11.9339 10.959C12.1036 10.8348 12.2362 10.6666 12.3174 10.4726L15.672 2.47824C15.7616 2.27155 15.9097 2.09557 16.098 1.97195C16.2863 1.84833 16.5067 1.78247 16.732 1.78247C16.9572 1.78247 17.1776 1.84833 17.3659 1.97195C17.5542 2.09557 17.7023 2.27155 17.7919 2.47824Z" fill="#EAD83A" stroke="#EAD83A" stroke-width="2.31052" stroke-linecap="round" stroke-linejoin="round"/>
</svg>
