<svg width="61" height="61" viewBox="0 0 61 61" fill="none" xmlns="http://www.w3.org/2000/svg">
<path d="M30.5 48.8334C32.3985 48.8334 33.9375 47.2944 33.9375 45.3959C33.9375 43.4974 32.3985 41.9584 30.5 41.9584C28.6015 41.9584 27.0625 43.4974 27.0625 45.3959C27.0625 47.2944 28.6015 48.8334 30.5 48.8334Z" fill="#EAD83A"/>
<path d="M30.4999 35.0833V32.7917C35.5616 32.7917 39.6666 29.1995 39.6666 24.7708C39.6666 20.3422 35.5616 16.75 30.4999 16.75C25.4382 16.75 21.3333 20.3422 21.3333 24.7708V25.9167" stroke="#EAD83A" stroke-width="4.58333" stroke-linecap="round" stroke-linejoin="round"/>
<path d="M30.5 58C45.6878 58 58 45.6878 58 30.5C58 15.3122 45.6878 3 30.5 3C15.3122 3 3 15.3122 3 30.5C3 45.6878 15.3122 58 30.5 58Z" stroke="#EAD83A" stroke-width="4.58333" stroke-linecap="round" stroke-linejoin="round"/>
</svg>
