<svg width="64" height="64" viewBox="0 0 64 64" fill="none" xmlns="http://www.w3.org/2000/svg">
<circle cx="32" cy="32" r="32" fill="#EFEFEF"/>
<path d="M14.3044 18.9131V33.6957" stroke="#797979" stroke-width="2.95652" stroke-linecap="round" stroke-linejoin="round"/>
<path d="M18.739 47C21.6401 42.5504 26.3354 39.6087 32.0434 39.6087C37.7513 39.6087 42.4466 42.5504 45.3477 47" stroke="#797979" stroke-width="2.95652" stroke-linecap="round" stroke-linejoin="round"/>
<path d="M49.7827 18.913L32.0436 24.8261L14.3044 18.913L32.0436 13L49.7827 18.913Z" stroke="#797979" stroke-width="2.95652" stroke-linecap="round" stroke-linejoin="round"/>
<path d="M39.6823 22.2798C41.0361 23.7613 41.9299 25.6046 42.2548 27.5851C42.5796 29.5656 42.3215 31.5978 41.512 33.4342C40.7024 35.2706 39.3763 36.832 37.6951 37.9281C36.014 39.0243 34.0503 39.6079 32.0434 39.6079C30.0364 39.6079 28.0728 39.0243 26.3916 37.9281C24.7105 36.832 23.3844 35.2706 22.5748 33.4342C21.7652 31.5978 21.5072 29.5656 21.832 27.5851C22.1569 25.6046 23.0507 23.7613 24.4045 22.2798" stroke="#797979" stroke-width="2.95652" stroke-linecap="round" stroke-linejoin="round"/>
</svg>
