<svg width="300" height="300" viewBox="0 0 300 300" fill="none" xmlns="http://www.w3.org/2000/svg">
<rect width="300" height="300" rx="60" fill="#9336B4"/>
<path d="M154.029 245.968C135.085 245.968 118.789 241.954 105.143 233.927C91.577 225.82 81.1416 214.581 73.8368 200.213C66.6123 185.844 63 169.308 63 150.604C63 131.66 66.6524 115.044 73.9572 100.755C81.3422 86.3865 91.8178 75.1885 105.384 67.1613C118.95 59.0538 135.085 55 153.788 55C169.923 55 184.051 57.9299 196.172 63.7898C208.293 69.6497 217.885 77.8776 224.949 88.4736C232.013 99.0695 235.907 111.512 236.629 125.8H188.225C186.86 116.569 183.248 109.144 177.388 103.525C171.608 97.8253 164.023 94.9756 154.631 94.9756C146.684 94.9756 139.74 97.143 133.8 101.478C127.94 105.732 123.365 111.953 120.074 120.141C116.782 128.329 115.137 138.242 115.137 149.882C115.137 161.682 116.742 171.716 119.953 179.984C123.244 188.252 127.86 194.553 133.8 198.888C139.74 203.223 146.684 205.39 154.631 205.39C160.491 205.39 165.749 204.186 170.404 201.778C175.14 199.37 179.034 195.878 182.084 191.302C185.215 186.647 187.262 181.068 188.225 174.566H236.629C235.826 188.694 231.973 201.136 225.07 211.892C218.247 222.569 208.815 230.917 196.774 236.937C184.733 242.958 170.485 245.968 154.029 245.968Z" fill="white"/>
</svg>
