<svg width="1440" height="2224" viewBox="0 0 1440 2224" fill="none" xmlns="http://www.w3.org/2000/svg">
<g clip-path="url(#clip0_6_906)">
<rect width="1440" height="4045" fill="white" fill-opacity="0.8"/>
<path fill-rule="evenodd" clip-rule="evenodd" d="M904.591 -1046L-24 -610.425L59.186 -433.083L-844 -9.42542L-484.591 756.79L444 321.215L360.814 143.873L1264 -279.785L904.591 -1046Z" fill="#EFEFEF"/>
<path fill-rule="evenodd" clip-rule="evenodd" d="M2521 766.215L1617.81 1189.87L1701 1367.22L842.477 1769.92L905 1903.21L-23.5914 2338.79L-383 1572.57L337.371 1234.67L274.848 1101.38L1316.19 612.917L1233 435.575L2161.59 2.52463e-05L2521 766.215Z" fill="#EFEFEF"/>
<path fill-rule="evenodd" clip-rule="evenodd" d="M2521 2634.21L1617.81 3057.87L1701 3235.22L842.477 3637.92L905 3771.21L-23.5914 4206.79L-383 3440.57L337.371 3102.67L274.848 2969.38L1316.19 2480.92L1233 2303.57L2161.59 1868L2521 2634.21Z" fill="#EFEFEF"/>
</g>
<defs>
<clipPath id="clip0_6_906">
<rect width="1440" height="4045" fill="white"/>
</clipPath>
</defs>
</svg>
